<svg width="16" height="16" viewBox="0 0 16 16" fill="none" xmlns="http://www.w3.org/2000/svg">
<path opacity="0.6" fill-rule="evenodd" clip-rule="evenodd" d="M12.6583 1.94374C13.9571 3.01801 14.1259 4.92743 13.0354 6.20855L7.12377 13.1535C7.08342 13.2042 7.03308 13.2474 6.9749 13.28C6.92374 13.3087 6.86835 13.328 6.81143 13.3379L2.78139 14.1613C2.62931 14.1924 2.47121 14.1531 2.35228 14.0547C2.23335 13.9563 2.16667 13.8097 2.17131 13.6566L2.29282 9.64398C2.28084 9.51565 2.31884 9.38279 2.40955 9.27623L8.33223 2.31828C9.42273 1.03716 11.3596 0.869473 12.6583 1.94374ZM3.30431 9.78158L9.10973 2.96139C9.83968 2.10384 11.1362 1.9916 12.0055 2.71069C12.8748 3.42977 12.9878 4.70789 12.2579 5.56543L6.44883 12.3899L3.20526 13.0526L3.30431 9.78158Z" fill="#282B42"/>
<path d="M15.4453 14.9986L2.99902 14.9986" stroke="#7E808E" stroke-linecap="round"/>
</svg>
